<svg viewBox="0 0 512 512" xmlns="http://www.w3.org/2000/svg">
 <rect width="512" height="512" rx="115" fill="#fcfcfc"/>
 <path d="M 124 216
  C 185 210, 290 208, 344 213
  C 362 214, 364 237.12, 360 254.72
  C 357 279.36, 360 295.2, 350 304
  C 260 312, 172.5 313, 114 306
  C 98 302, 94 264.4, 98 242.4
  C 101 226.56, 106 218, 124 216 Z"
  fill="#d5f856" opacity="0.85" transform="rotate(-2 256 256)"/>
 <g transform="translate(120.66 350) scale(0.28 -0.28)"><path d="M704.7984619140625 -191.7999267578125Q660.398681640625 -191.7999267578125 622.3988647460938 -173.19989013671875Q584.3990478515625 -154.599853515625 549.1991577148438 -112.99981689453125Q513.999267578125 -71.3997802734375 478.1993408203125 -3.599853515625Q456.999267578125 -8.7999267578125 433.499267578125 -11.39996337890625Q409.999267578125 -14 385.999267578125 -14Q277.6002197265625 -14 200.80047607421875 30.7999267578125Q124.000732421875 75.599853515625 83.8006591796875 155.3997802734375Q43.6005859375 235.19970703125 43.6005859375 338.599853515625Q43.6005859375 457.9996337890625 88.70025634765625 542.0996704101562Q133.7999267578125 626.19970703125 214.0994873046875 671.599853515625Q294.3990478515625 717 401.398681640625 717Q500.7984619140625 717 575.9981689453125 675.099853515625Q651.1978759765625 633.19970703125 693.6976928710938 555.5996704101562Q736.197509765625 477.9996337890625 736.197509765625 368.2000732421875Q736.197509765625 262.3994140625 698.1973266601562 178.39923095703125Q660.1971435546875 94.3990478515625 587.7969970703125 43.999267578125Q619.9970703125 -3.000732421875 645.7971801757812 -29.1009521484375Q671.5972900390625 -55.201171875 694.8973999023438 -66.70135498046875Q718.197509765625 -78.2015380859375 742.3975830078125 -78.2015380859375Q777.1978759765625 -78.2015380859375 805.6982421875 -68.20135498046875Q834.1986083984375 -58.201171875 866.198974609375 -35.2008056640625L895.5980224609375 -75.9996337890625Q867.7977294921875 -115 836.997802734375 -140.7000732421875Q806.1978759765625 -166.400146484375 774.1980590820312 -179.10003662109375Q742.1982421875 -191.7999267578125 704.7984619140625 -191.7999267578125ZM397.1993408203125 70.5980224609375Q408.7999267578125 70.5980224609375 419.80010986328125 71.19805908203125Q430.80029296875 71.798095703125 436.4005126953125 74.798095703125Q419.6002197265625 107.99853515625 404.39996337890625 132.69879150390625Q389.19970703125 157.3990478515625 374.0994873046875 173.69915771484375Q358.999267578125 189.999267578125 344.29901123046875 197.59930419921875Q329.5987548828125 205.1993408203125 312.99853515625 205.1993408203125Q291.39794921875 205.1993408203125 273.8975830078125 196.79901123046875Q256.397216796875 188.398681640625 241.19677734375 171.39794921875Q257.1971435546875 139.39794921875 279.3975830078125 116.99798583984375Q301.5980224609375 94.5980224609375 331.2984619140625 82.5980224609375Q360.9989013671875 70.5980224609375 397.1993408203125 70.5980224609375ZM522.799560546875 140.595458984375Q548.40087890625 172.5958251953125 562.2015380859375 226.096923828125Q576.002197265625 279.5980224609375 576.002197265625 350Q576.002197265625 419.80029296875 562.9019775390625 472.3006591796875Q549.8017578125 524.801025390625 525.2013549804688 560.3013916015625Q500.6009521484375 595.8017578125 465.40032958984375 613.60205078125Q430.19970703125 631.40234375 385.798828125 631.40234375Q343.39794921875 631.40234375 309.79736328125 615.5020141601562Q276.19677734375 599.6016845703125 252.59637451171875 566.4012451171875Q228.9959716796875 533.2008056640625 216.49578857421875 481.700439453125Q203.99560546875 430.2000732421875 203.99560546875 359Q203.99560546875 319.59912109375 208.99578857421875 288.69805908203125Q213.9959716796875 257.7969970703125 223.396484375 229.1964111328125Q248.596923828125 253.1971435546875 275.7969970703125 265.39739990234375Q302.9970703125 277.59765625 337.197509765625 277.59765625Q370.3975830078125 277.59765625 400.89776611328125 262.697509765625Q431.39794921875 247.79736328125 461.49835205078125 217.49688720703125Q491.5987548828125 187.1964111328125 522.799560546875 140.595458984375Z" fill="#161513"/></g>
 
 <g transform="rotate(-7 234 250)" fill="none" stroke="#c23b2b" stroke-width="11" stroke-linecap="round" opacity="0.88">
  <path d="M 371.6 193.72
           C 406.8 247.32, 381.20000000000005 333.08, 282 373.28
           C 189.2 402.76, 83.60000000000002 343.8, 70.80000000000001 263.4
           C 61.19999999999999 180.32, 157.2 118.68, 253.2 116
           C 317.2 114.66, 365.2 150.84, 384.4 209.8"/>
 </g>
 <circle cx="386" cy="328" r="25" fill="#c23b2b"/>
 <path d="M 118 424 C 188.2 416, 286.48 427, 352 418" fill="none" stroke="#5b574f" stroke-width="9" stroke-linecap="round" opacity="0.75"/>
</svg>